<svg xmlns="http://www.w3.org/2000/svg" width="20.586" height="20.121" viewBox="0 0 20.586 20.121">
  <path id="Path_362" data-name="Path 362" d="M13.875,18.825A10.019,10.019,0,0,1,2.457,12,9.97,9.97,0,0,1,4.02,8.971m5.858.908a3,3,0,0,1,4.243,4.243M9.878,9.878,14.12,14.12M9.88,9.88,6.59,6.59m7.532,7.532,3.29,3.29M3,3,6.59,6.59m0,0A10,10,0,0,1,21.543,12a10.025,10.025,0,0,1-4.132,5.411m0,0L21,21" transform="translate(-1.707 -1.939)" fill="none" stroke="#828282" stroke-linecap="round" stroke-linejoin="round" stroke-width="1.5" opacity="0.7"/>
</svg>
